<svg width="356" height="122" viewBox="0 0 356 122" fill="none" xmlns="http://www.w3.org/2000/svg">
<path d="M182.584 86.7061H186.14C188.467 86.7061 189.601 87.9938 189.601 90.3685V97.8585C189.601 100.221 188.455 101.521 186.14 101.521H182.584V86.7061ZM186.093 99.3943C186.837 99.3943 187.274 99.0163 187.274 97.953V90.2621C187.274 89.1989 186.825 88.8208 186.093 88.8208H184.911V99.3943H186.093Z" fill="white"/>
<path d="M199.62 86.7061H205.964V88.8208H201.947V92.7312H205.137V94.8459H201.947V99.3943H205.964V101.509H199.62V86.7061Z" fill="white"/>
<path d="M227.595 86.7061H230.915L232.391 97.3033H232.439L233.915 86.7061H237.235V101.509H235.038V90.2976H235.002L233.313 101.509H231.364L229.674 90.2976H229.627V101.509H227.595V86.7061Z" fill="white"/>
<path d="M247.419 86.7066H253.763V88.8213H249.746V92.7317H252.936V94.8464H249.746V99.3948H253.763V101.51H247.419V86.7066ZM250.798 83.2806H253.338L251.069 85.7143H249.309L250.798 83.2806Z" fill="white"/>
<path d="M265.648 93.9363L263.084 86.7061H265.542L267.101 91.4908H267.137L268.743 86.7061H270.941L268.377 93.9363L271.059 101.509H268.601L266.912 96.3463H266.865L265.128 101.509H262.931L265.648 93.9363Z" fill="white"/>
<path d="M280.628 86.7061H282.955V101.509H280.628V86.7061Z" fill="white"/>
<path d="M292.997 98.0836V90.1328C292.997 87.8527 294.178 86.4941 296.423 86.4941C298.668 86.4941 299.849 87.8527 299.849 90.1328V91.6922H297.652V89.9792C297.652 89.0104 297.191 88.6088 296.494 88.6088C295.797 88.6088 295.336 89.0104 295.336 89.9792V98.249C295.336 99.2177 295.797 99.6076 296.494 99.6076C297.191 99.6076 297.652 99.2295 297.652 98.249V95.9807H299.849V98.0718C299.849 100.352 298.668 101.71 296.423 101.71C294.178 101.722 292.997 100.364 292.997 98.0836Z" fill="white"/>
<path d="M309.572 98.0009V90.2155C309.572 87.8527 310.824 86.4941 313.105 86.4941C315.385 86.4941 316.637 87.8527 316.637 90.2155V98.0009C316.637 100.364 315.385 101.722 313.105 101.722C310.813 101.722 309.572 100.364 309.572 98.0009ZM314.31 98.1426V90.0619C314.31 88.9986 313.849 88.597 313.105 88.597C312.36 88.597 311.9 88.9986 311.9 90.0619V98.1426C311.9 99.2059 312.36 99.6076 313.105 99.6076C313.849 99.6076 314.31 99.2059 314.31 98.1426Z" fill="white"/>
<path d="M259.481 64.7086C260.273 62.653 261.076 60.5855 261.867 58.5299C265.376 49.3977 268.885 40.2537 272.394 31.1215C273.232 28.936 274.083 26.7622 274.875 24.5648C275.205 23.6551 275.654 23.218 276.718 23.2416C279.671 23.3007 279.671 23.2534 279.671 26.1715C279.671 40.0765 279.671 53.9697 279.671 67.8748C279.671 69.3279 279.671 69.3279 278.206 69.3279C275.406 69.3397 275.406 69.3397 275.406 66.4807C275.406 54.6195 275.406 42.7701 275.406 30.9089C275.406 30.3891 275.324 29.8811 275.276 29.3613C275.17 29.3494 275.064 29.3376 274.946 29.3376C274.296 31.0152 273.646 32.681 272.996 34.3586C268.649 45.7118 264.313 57.0768 259.977 68.4418C259.753 69.0207 259.422 69.3043 258.737 69.3161C256.256 69.3633 256.232 69.3988 255.334 67.0832C251.247 56.427 247.171 45.759 243.095 35.091C242.504 33.5316 241.914 31.9721 241.299 30.4245C241.169 30.1055 240.945 29.8338 240.768 29.5385C240.673 29.5621 240.579 29.5975 240.484 29.6212C240.484 30.0819 240.484 30.5545 240.484 31.0152C240.484 43.2072 240.484 55.3992 240.484 67.5912C240.484 67.9575 240.567 68.3709 240.437 68.6899C240.331 68.9498 239.964 69.2452 239.716 69.2452C239.445 69.2452 239.055 68.9971 238.913 68.7372C238.771 68.4773 238.854 68.0874 238.854 67.7566C238.854 53.4854 238.854 39.2141 238.854 24.931C238.854 23.2771 238.854 23.2771 240.531 23.2652C243.142 23.2534 243.154 23.2534 244.111 25.7344C248.86 38.1272 253.586 50.5319 258.335 62.9247C258.571 63.5509 258.879 64.1416 259.162 64.7559C259.28 64.7441 259.375 64.7322 259.481 64.7086Z" fill="white"/>
<path d="M321.941 69.2685C320.5 69.2685 319.212 69.3276 317.936 69.2213C317.677 69.1976 317.358 68.6187 317.239 68.2407C316.2 64.9564 315.184 61.6603 314.203 58.3524C314.002 57.679 313.636 57.4664 312.998 57.4664C307.198 57.4664 301.397 57.4664 295.608 57.4664C294.923 57.4664 294.557 57.6908 294.332 58.4115C293.363 61.6485 292.288 64.8383 291.355 68.0871C291.048 69.1504 290.575 69.5166 289.335 69.1268C289.76 67.65 290.186 66.1851 290.623 64.7201C292.513 58.5532 294.403 52.3864 296.293 46.2195C298.16 40.1589 300.038 34.0984 301.905 28.0496C302.283 26.8091 302.661 25.5687 303.004 24.3164C303.204 23.6194 303.559 23.2413 304.35 23.2768C305.201 23.324 306.063 23.324 306.914 23.2768C307.647 23.2413 308.001 23.5957 308.19 24.2455C310.6 32.1491 313.01 40.0644 315.444 47.9679C317.452 54.4893 319.472 60.9987 321.493 67.5201C321.634 68.0044 321.741 68.5124 321.941 69.2685ZM304.528 26.9982C304.41 26.9745 304.28 26.9509 304.161 26.9391C304.02 27.2463 303.842 27.5416 303.748 27.8606C302.626 31.4402 301.527 35.008 300.416 38.5877C298.751 43.9748 297.085 49.3502 295.407 54.7373C295.171 55.4934 295.384 55.8597 296.222 55.8597C301.574 55.8478 306.926 55.8478 312.278 55.8597C313.022 55.8597 313.317 55.5525 313.081 54.82C312.75 53.7568 312.408 52.6935 312.089 51.6303C310.222 45.5343 308.355 39.4383 306.477 33.3423C305.839 31.2276 305.189 29.1129 304.528 26.9982Z" fill="white"/>
<path d="M351.689 59.2035C351.748 55.9547 350.401 53.2611 347.885 51.3945C344.86 49.1498 341.588 47.2124 338.386 45.204C336.012 43.7154 333.661 42.2033 332.054 39.8523C329.101 35.5047 329.679 30.3893 333.46 26.6797C337.677 22.5448 345.191 21.8478 349.905 25.2266C350.85 25.9 351.606 26.8569 352.386 27.743C352.693 28.0974 353.142 28.629 352.398 29.0307C351.842 29.326 351.405 29.3024 351.015 28.6408C350.106 27.0696 348.747 25.9827 347.046 25.392C343.986 24.3287 340.938 24.1161 338.032 25.8527C334.37 28.0383 332.928 34.6778 336.721 38.3046C338.977 40.4666 341.73 41.8606 344.317 43.5146C346.963 45.204 349.68 46.8698 352.055 48.9136C355.918 52.2451 356.981 57.3015 355.079 62.0153C353.319 66.3864 349.846 68.8083 345.357 69.6471C340.3 70.5922 335.586 69.6589 331.57 66.2447C330.672 65.4886 329.904 64.5553 329.101 63.681C328.746 63.2912 328.38 62.8895 329.041 62.4051C329.668 61.9444 329.987 62.3106 330.436 62.7123C331.853 64 333.2 65.4413 334.83 66.4219C337.961 68.3121 341.458 68.761 345.038 67.9459C349.125 67.0244 351.571 63.7519 351.689 59.2035Z" fill="white"/>
<path d="M177.079 61.6382C175.295 64.9815 172.684 67.4388 169.175 68.6675C163.126 70.7822 157.231 70.4514 151.903 66.5528C148.134 63.8001 145.866 59.9487 144.567 55.5303C143.149 50.7575 142.842 45.8783 143.68 40.9755C144.897 33.9226 147.898 27.9447 154.585 24.5778C161.425 21.1281 169.636 22.1323 174.728 27.5549C175.07 27.9211 175.72 28.2873 175.07 28.9371C174.562 29.4451 174.149 29.6223 173.523 28.9607C169.872 25.1212 165.312 23.8335 160.208 24.7668C156.014 25.5347 153.203 28.3228 151.182 31.9497C149.339 35.2576 148.453 38.8608 148.17 42.5822C147.756 47.993 148.111 53.3329 150.273 58.4366C153.025 64.9461 158.755 68.4194 165.749 67.5215C169.648 67.0253 172.814 65.0878 175.082 61.839C175.673 61.0002 176.193 60.693 177.079 61.6382Z" fill="white"/>
<path d="M186.223 46.3613C186.223 39.1547 186.223 31.9482 186.223 24.7417C186.223 23.3358 186.27 23.3004 187.652 23.2886C190.499 23.265 190.499 23.265 190.499 26.0767C190.499 39.4146 190.499 52.7526 190.499 66.0906C190.499 67.6027 190.499 67.6146 192.047 67.6146C198.663 67.6146 205.278 67.6146 211.882 67.6146C212.178 67.6146 212.473 67.6264 212.769 67.6146C213.43 67.6028 213.678 68.0281 213.525 68.5479C213.43 68.855 213.005 69.2567 212.709 69.2685C211.008 69.3394 209.295 69.304 207.582 69.304C200.896 69.304 194.209 69.2803 187.522 69.3276C186.482 69.3394 186.187 68.9968 186.187 67.9926C186.234 60.7743 186.223 53.5678 186.223 46.3613Z" fill="white"/>
<path d="M226.638 46.3736C226.638 53.5801 226.615 60.7985 226.662 68.005C226.662 69.021 226.39 69.34 225.35 69.3281C222.362 69.2809 222.362 69.3163 222.362 66.3156C222.362 52.5287 222.362 38.7418 222.362 24.9549C222.362 23.2892 222.362 23.2655 224.027 23.2891C227.063 23.3246 226.626 22.8875 226.626 25.8646C226.65 32.6931 226.638 39.5333 226.638 46.3736Z" fill="white"/>
<path d="M106.386 113.469C106.448 113.049 106.531 112.636 106.648 112.23C106.524 112.588 106.441 112.953 106.4 113.318C106.393 113.373 106.393 113.421 106.386 113.469Z" fill="white"/>
<path d="M122.561 115.148C122.32 115.347 122.079 115.554 121.852 115.774C121.783 115.836 121.721 115.905 121.659 115.974C121.487 116.153 121.322 116.338 121.157 116.524C121.081 116.614 121.012 116.703 120.943 116.793C120.792 116.992 120.64 117.192 120.496 117.398C120.441 117.481 120.386 117.557 120.331 117.639C120.145 117.928 119.966 118.224 119.801 118.534C119.766 118.596 119.739 118.658 119.711 118.72C119.58 118.975 119.457 119.236 119.346 119.504C119.298 119.615 119.257 119.725 119.216 119.835C119.119 120.076 119.037 120.317 118.954 120.564C118.92 120.675 118.878 120.778 118.851 120.888C118.837 120.943 118.823 120.991 118.81 121.046H122.561V115.148Z" fill="white"/>
<path d="M104.817 1.82392C110.867 2.23689 116.875 1.81704 122.684 0.571266V0H94.0455C97.5763 0.93605 101.183 1.54861 104.817 1.82392Z" fill="#ED9442"/>
<path d="M113.551 47.9932C111.039 47.1741 108.3 48.1033 105.657 49.0049L104.845 49.2803C101.761 50.4434 98.2165 50.822 94.9059 50.3402C92.8136 50.0855 90.7419 49.6175 88.739 49.1701C87.6309 48.9223 86.5228 48.6746 85.4146 48.4612C81.815 47.7798 78.8348 47.7316 76.3157 48.296C73.4318 48.9017 71.0091 50.7532 69.9905 53.1277C68.9718 55.3577 68.7722 58.159 69.4123 61.2355C69.9973 63.906 71.1812 66.4182 72.427 69.075C73.7828 71.9451 75.18 74.9115 75.8064 78.1877C77.0453 84.4647 75.71 91.0928 72.1448 96.3856C71.3808 97.5626 70.5411 98.7051 69.722 99.8132C68.7103 101.197 67.7467 102.497 66.9001 103.888C65.1381 106.717 64.4086 109.387 64.7183 111.824C64.9798 114.281 66.2118 116.758 68.49 119.415C68.9718 119.98 69.4811 120.523 70.0042 121.06H83.9555C83.1365 120.255 82.2279 119.505 81.285 118.727C79.7502 117.461 78.1671 116.153 76.9145 114.515C75.4416 112.629 74.829 110.261 75.2351 108.004C75.593 105.739 76.7424 103.729 77.7886 102.023C78.1878 101.382 78.5939 100.749 79.0068 100.123C79.7364 99.001 80.4247 97.948 81.0235 96.8399C81.9526 95.1398 82.634 93.3297 83.0539 91.4645C83.9417 87.5688 83.8316 83.6526 82.7442 80.1286C82.3931 78.9104 81.8907 77.7334 81.3676 76.4945C81.0923 75.8476 80.8101 75.1868 80.5554 74.5192C79.8121 72.5852 79.1238 70.2932 79.6607 67.9187C80.0943 65.9227 81.4777 64.0781 83.7834 62.44C85.4284 61.2837 87.2523 60.1756 89.3653 59.0606C91.616 57.8974 93.7083 57.1747 95.7594 56.8581C98.2234 56.4796 100.625 56.7687 102.697 57.6978C104.907 58.6614 106.627 60.6023 107.302 62.8805C108.024 65.1793 107.839 67.547 107.591 69.3503C107.453 70.2794 107.274 71.2086 107.095 72.1378C106.496 75.1937 105.939 78.0844 106.951 80.7343C107.494 82.1315 108.596 83.3497 109.766 84.6368L110.378 85.3182C111.652 86.7085 113.352 88.8903 113.365 91.5952C113.393 93.6807 112.526 95.8488 110.777 98.0306C109.484 99.6618 107.887 100.963 106.345 102.222L105.973 102.525C104.452 103.785 102.869 105.092 101.782 106.627C100.742 108.045 100.233 109.724 100.309 111.493C100.378 114.329 101.658 116.972 103.007 119.773C103.213 120.193 103.413 120.62 103.619 121.046H105.595C105.361 119.925 105.196 118.927 105.085 117.963L105.037 117.419C104.92 116.043 104.803 114.618 105.03 113.111C105.223 111.417 106.173 109.621 107.57 108.327C108.527 107.398 109.594 106.655 110.626 105.932L111.459 105.347C112.918 104.314 114.074 103.434 115.1 102.566C117.942 100.164 119.574 98.1407 120.372 96.0002C121.274 93.7082 120.888 91.0653 119.291 88.5324C118.817 87.7203 118.3 86.9425 117.77 86.1579C116.573 84.3684 115.341 82.5238 114.652 80.3351C113.806 77.6164 113.923 74.4917 114.997 70.7681C115.465 69.13 116.077 67.5332 116.662 65.9915C117.137 64.7526 117.626 63.4655 118.025 62.1991C118.693 60.0586 119.498 56.8719 118.72 53.933C118.108 51.6754 116.442 48.9223 113.551 47.9932Z" fill="white"/>
<path d="M104.624 4.41871C98.0099 3.97821 91.5677 2.49155 85.4627 0H68.5519C74.4779 1.86522 79.9153 4.69402 84.5129 7.0892L86.7016 8.23862C93.2333 11.6731 99.9853 15.2177 107.247 16.8351C111.624 17.7918 115.637 17.7781 119.161 16.7938C120.303 16.4772 121.459 16.0643 122.685 15.5481V3.13852C116.82 4.37053 110.743 4.79726 104.624 4.41871Z" fill="white"/>
<path d="M97.3218 111.624C97.1979 109.283 97.9137 106.868 99.2971 104.989C100.598 103.144 102.284 101.726 104.039 100.322L104.377 100.054C105.905 98.8354 107.35 97.686 108.472 96.3026C109.835 94.6507 110.523 93.0814 110.509 91.6361C110.537 89.7227 109.229 88.2016 107.722 86.4465C106.49 85.0149 105.209 83.5282 104.494 81.6286C103.317 78.1941 104.046 74.9386 104.755 71.7863C104.962 70.8571 105.168 69.9486 105.32 69.047C105.684 66.7137 105.65 64.9999 105.202 63.4995C104.714 61.7513 103.482 60.3197 101.816 59.5557C100.137 58.7711 98.0858 58.5026 96.0416 58.7848C94.314 59.0188 92.5521 59.6452 90.3083 60.8152C88.2091 61.9647 86.4815 63.0452 85.0361 64.1121C83.2328 65.4817 82.1798 66.9202 81.9183 68.3794C81.5191 70.7539 82.579 73.039 83.7078 75.4617C84.2928 76.7212 84.9054 78.022 85.3252 79.3917C86.6398 83.5833 86.7775 87.9745 85.7313 92.0766C85.222 94.162 84.4098 96.1787 83.3361 98.0645C82.6341 99.3172 81.8081 100.48 81.0028 101.602C80.6036 102.16 80.2045 102.717 79.8259 103.275C78.821 104.768 77.7198 106.517 77.3412 108.389C76.9627 110.096 77.3619 111.919 78.4425 113.42C79.5093 114.934 80.9547 116.159 82.4757 117.453C83.7835 118.561 85.1256 119.704 86.2406 121.06H100.385C98.9186 118.141 97.4594 115.113 97.3218 111.624ZM94.6719 99.0075C94.3003 99.0075 93.9424 98.9593 93.5982 98.8698C92.084 98.4706 91.2994 97.2661 90.969 96.5848C90.15 94.6714 90.8451 92.992 91.4026 91.6361L91.9188 90.3972C92.4557 89.1376 92.965 87.9469 92.9513 86.7356C92.7379 84.8566 91.6642 83.1703 90.5285 81.3877C89.9091 80.4104 89.2621 79.3986 88.7528 78.318C86.8532 74.6977 86.688 70.8778 88.2985 67.8769C89.2828 66.0668 90.8107 64.704 92.6209 64.0364C94.5687 63.2173 97.0671 63.706 98.5263 65.2133C100.798 67.4984 101.74 70.926 101.252 75.1175C101.128 76.1637 100.818 77.1479 100.515 78.0978C100.323 78.7103 100.13 79.3022 100.006 79.8873C99.7032 81.1193 100.054 82.2343 100.756 83.7554C102.518 87.0315 102.711 91.0717 101.238 94.2584C100.35 96.103 98.9186 97.5415 97.0878 98.4293C96.2343 98.8148 95.429 99.0075 94.6719 99.0075Z" fill="white"/>
<path d="M94.5893 86.6394C94.6856 88.071 94.2383 89.3306 93.8115 90.5488C93.6808 90.9205 93.55 91.2853 93.4399 91.6501C93.0131 93.061 92.552 94.5614 93.1095 95.4356C93.4192 95.9105 93.8322 96.2408 94.252 96.3303C94.6375 96.406 95.1743 96.2821 95.7593 95.9655C96.9776 95.2773 98.0306 94.1898 98.4918 93.123C99.5861 90.4938 99.4623 87.5617 98.1477 84.8706L98.1408 84.8568C97.4663 83.4114 96.7986 81.2709 97.4731 79.2612C97.6727 78.566 97.9343 77.8984 98.1889 77.2514C98.5193 76.4048 98.8359 75.6064 98.9805 74.7736C99.3108 73.1218 99.7857 69.0541 97.1221 66.6176C96.5371 66.0532 95.7318 65.7504 94.9334 65.7504C94.4516 65.7504 93.9698 65.8605 93.5431 66.0807C92.3317 66.6382 91.3338 67.6706 90.7143 69.0059C89.6268 71.2565 89.7163 74.0785 90.969 77.4028C91.3475 78.5453 91.8981 79.6122 92.4763 80.7478C93.4123 82.5924 94.3828 84.4783 94.5893 86.6394Z" fill="white"/>
<path d="M117.089 119.567C117.213 119.188 117.343 118.824 117.488 118.466C117.515 118.404 117.543 118.349 117.564 118.287C117.715 117.943 117.866 117.599 118.039 117.275C118.087 117.186 118.135 117.11 118.183 117.02C118.341 116.731 118.507 116.442 118.686 116.167C118.768 116.043 118.851 115.926 118.94 115.809C119.098 115.582 119.257 115.355 119.429 115.135C119.553 114.976 119.69 114.832 119.828 114.68C119.973 114.515 120.11 114.343 120.269 114.185C120.454 113.999 120.654 113.82 120.847 113.648C120.964 113.545 121.074 113.428 121.198 113.324C121.521 113.056 121.865 112.801 122.216 112.567C122.368 112.464 122.533 112.368 122.698 112.278V97.8038C120.695 102.119 116.875 104.948 113.179 107.694C111.927 108.623 110.743 109.504 109.655 110.42C107.694 112.12 107.79 114.818 108.086 117.66C108.203 118.7 108.396 119.815 108.664 121.054H116.696C116.717 120.978 116.738 120.902 116.758 120.82C116.841 120.462 116.937 120.104 117.041 119.76C117.041 119.698 117.068 119.636 117.089 119.567Z" fill="white"/>
<path d="M73.5489 23.8554C66.7281 24.2959 60.1964 27.8199 56.5004 33.0507C52.3776 39.0387 52.8801 46.3619 54.0226 51.4551C54.8829 55.5641 56.3008 59.6525 57.6773 63.5963C58.4757 65.8813 59.2948 68.2421 60.0106 70.6098C61.1531 74.3953 61.8207 77.6026 62.1236 80.6998C62.3713 83.6801 62.447 87.555 60.8089 91.2373C58.9437 95.3463 55.4955 97.9824 52.1574 100.529C49.8448 102.298 47.6561 103.963 46.0662 106.049C45.1301 107.308 44.4625 108.678 44.0908 110.096C43.7604 111.796 43.6916 113.269 43.8843 114.556C44.1665 116.724 45.1301 118.899 46.7338 121.053H67.6228C67.4645 120.881 67.3131 120.709 67.1617 120.537C64.7183 117.75 63.2661 114.893 62.8531 112.064C62.4057 109.243 63.1628 106.042 65.0556 102.821C65.9159 101.327 66.9002 99.8958 67.8637 98.5192C68.6277 97.418 69.4124 96.2823 70.1075 95.1398C73.1841 90.2049 74.2784 84.21 73.1153 78.697C72.5371 75.8957 71.3533 73.2665 70.0937 70.4859C68.8411 67.7121 67.5471 64.8489 66.8726 61.7379C66.1706 58.0763 66.4597 54.8552 67.7399 52.1503C69.0889 49.0944 72.1861 46.7611 75.8202 46.0729C78.6971 45.4741 81.8907 45.5567 85.8483 46.3619C86.9977 46.5959 88.1265 46.8713 89.2552 47.1397C91.2857 47.6284 93.2059 48.0826 95.195 48.351C98.3886 48.8328 101.493 48.53 104.184 47.4769L105.154 47.1397C107.887 46.1761 110.991 45.0818 114.191 46.066C117.344 47.0502 119.828 49.7964 120.826 53.4167C121.769 56.8374 120.991 60.265 120.214 62.8736C119.815 64.2226 119.333 65.551 118.872 66.838C118.307 68.4073 117.77 69.894 117.357 71.4219C116.47 74.6981 116.394 77.3755 117.137 79.6055C117.729 81.3881 118.844 83.0056 120.021 84.7125C120.579 85.5246 121.143 86.3437 121.666 87.1971C122.065 87.789 122.402 88.4154 122.685 89.0486V33.5394C119.87 35.1637 116.704 36.8225 113.035 37.4488C108.651 38.1921 104.569 36.9945 101.926 35.8589C98.9255 34.6062 96.2068 32.8993 93.5707 31.2475L92.5521 30.6074C89.9848 28.9831 86.7844 26.9595 83.4738 25.5761C80.3903 24.2133 76.9558 23.6214 73.5489 23.8554Z" fill="white"/>
<path d="M6.18757 49.5691C7.02038 44.4277 6.98596 38.7908 6.08433 32.8097C5.23775 27.0626 3.76485 21.2742 2.33324 15.6786C1.53485 12.5469 0.722686 9.35335 0 6.11847V70.231C0.543735 68.8338 1.08747 67.4229 1.60367 65.9982C4.02639 59.4183 5.43735 54.3526 6.18757 49.5691Z" fill="#ED9442"/>
<path d="M26.1405 121.053H43.2992C42.0672 119.037 41.3101 116.985 41.0416 114.934C40.8007 113.303 40.8765 111.569 41.2963 109.476C41.7712 107.659 42.5971 105.973 43.7603 104.411C45.6324 101.995 48.0138 100.178 50.3195 98.4159C50.822 98.0305 51.3244 97.6519 51.8131 97.2665C54.2565 95.36 56.9614 93.0818 58.1934 90.1635C59.2809 87.7477 59.6319 84.8157 59.3084 80.9338C59.0331 78.0706 58.3792 74.9389 57.3055 71.3599C56.6241 69.068 55.812 66.7485 55.0273 64.4979C53.6233 60.4577 52.171 56.2868 51.3107 51.9713C50.0993 46.3963 49.6382 38.3229 54.3391 31.6053C58.5238 25.7894 65.8194 21.9076 73.3836 21.4602C77.1897 21.2193 81.0027 21.9076 84.4166 23.4424C87.8923 24.9222 91.024 26.9319 93.7908 28.7146L94.7613 29.334C97.3285 30.9652 99.9853 32.6515 102.807 33.8422C106.207 35.3151 109.614 35.8313 112.663 35.3289C116.311 34.7438 119.415 32.9819 122.678 31.1029V18.5006C121.728 18.8723 120.819 19.1751 119.925 19.4229C115.946 20.531 111.466 20.5585 106.62 19.5055C98.9597 17.7986 92.1321 14.2196 85.5247 10.7575L83.1501 9.51866C76.3225 5.96717 68.5932 1.94078 60.1137 0.949666C55.6674 0.433462 51.586 0.619295 47.9794 1.4934C43.8429 2.47075 40.3534 4.38414 37.8894 7.02023C35.4735 9.48424 33.801 12.9256 33.0301 16.9864C32.3901 20.4209 32.3763 24.1444 32.9889 28.3636C33.8492 34.4823 35.8314 40.5597 37.7517 46.4445C38.261 48 38.7635 49.5555 39.259 51.1247C41.4959 58.1382 43.719 66.4594 43.2441 74.9252C42.9757 79.3439 41.9777 83.3634 40.2708 86.8805C38.5845 90.4251 36.4027 93.7357 34.2897 96.9361L33.8698 97.5762C31.7362 100.804 29.5337 104.142 27.8543 107.611C25.8308 111.782 25.06 115.341 25.4936 118.486C25.5899 119.333 25.8033 120.179 26.1405 121.053Z" fill="white"/>
<path d="M6.9722 100.921C8.3281 96.1516 10.4549 91.8087 12.3614 88.1815C13.4557 86.096 14.6051 84.038 15.7546 81.9801C18.9481 76.2675 22.245 70.3552 24.1102 64.1607C26.9803 55.3096 25.4798 45.8045 23.8624 38.5088C23.3187 36.0586 22.6923 33.5533 22.0935 31.1374C20.5518 24.9636 18.9619 18.5765 18.4595 12.031C18.1291 7.65359 18.3493 3.70291 19.1271 0H2.37454C3.24176 4.94868 4.52195 9.93177 5.75396 14.7634C7.21309 20.4623 8.72041 26.3539 9.60828 32.3282C10.565 38.6327 10.6063 44.6069 9.72529 50.0856C8.72729 56.5072 6.67624 62.5777 4.99686 67.1479C3.97821 69.9354 2.8701 72.7504 1.79639 75.4622C1.19071 76.9901 0.591914 78.5181 0 80.0461V121.067H7.7293C6.91025 119.016 6.31834 116.951 5.96732 114.914C5.27905 110.371 5.63007 105.54 6.9722 100.921Z" fill="white"/>
<path d="M32.218 95.745C34.276 92.5652 36.4096 89.2753 37.9858 85.8614C39.5206 82.6128 40.4085 78.8892 40.6218 74.7871C41.0004 66.7275 38.7704 58.716 36.5404 51.9434C36.1481 50.7389 35.742 49.5275 35.3359 48.3231C33.2229 42.0254 31.0411 35.5074 30.0982 28.7555C29.4512 24.2335 29.4718 20.2209 30.1739 16.4905C31.048 11.8997 32.982 7.96966 35.7695 5.12709C37.7655 2.99345 40.4222 1.23836 43.4575 0.00634766H22.6579C21.8389 3.5716 21.5842 7.53605 21.9146 11.7896C22.3964 18.0184 23.9657 24.2886 25.4867 30.3523C26.1062 32.8301 26.7256 35.3078 27.29 37.8131C29.0107 45.4943 30.5868 55.5362 27.5034 65.1169C25.528 71.6968 22.1624 77.7329 18.9069 83.5695C17.7643 85.6206 16.6218 87.6647 15.5481 89.7226C13.8343 92.9851 11.7075 97.3143 10.4273 101.829C9.20222 106.048 8.89938 110.268 9.51882 114.363C9.89737 116.565 10.6063 118.823 11.6181 121.06H23.8418C23.594 120.296 23.415 119.532 23.3187 118.782C22.8025 115.168 23.5802 111.321 25.7758 106.675C27.4965 103.054 29.6921 99.6544 31.8257 96.3645L32.218 95.745Z" fill="white"/>
</svg>
