<svg width="41" height="41" viewBox="0 0 41 41" fill="none" xmlns="http://www.w3.org/2000/svg">
<path d="M36.0073 29.8598C34.7395 28.5824 31.6689 26.7181 30.1791 25.9669C28.239 24.9896 28.0793 24.9098 26.5544 26.0427C25.5373 26.7988 24.861 27.4742 23.6706 27.2203C22.4802 26.9664 19.8935 25.5349 17.6284 23.2771C15.3634 21.0193 13.8489 18.3574 13.5942 17.171C13.3395 15.9846 14.0261 15.3164 14.775 14.2968C15.8305 12.8597 15.7506 12.6202 14.8484 10.6801C14.1451 9.17119 12.2265 6.12934 10.9443 4.86789C9.57271 3.51302 9.57271 3.75254 8.68889 4.1198C7.96936 4.42254 7.27907 4.79053 6.62666 5.21918C5.34924 6.06786 4.64027 6.77284 4.14447 7.8323C3.64868 8.89176 3.42593 11.3755 5.98635 16.0269C8.54678 20.6783 10.3432 23.0567 14.0612 26.7645C17.7793 30.4722 20.6384 32.4657 24.8179 34.8098C29.9883 37.7055 31.9715 37.1411 33.0341 36.6461C34.0968 36.1511 34.8049 35.4485 35.6552 34.1711C36.085 33.5198 36.4538 32.8302 36.757 32.1112C37.125 31.2306 37.3646 31.2306 36.0073 29.8598Z" stroke="white" stroke-width="2.55484" stroke-miterlimit="10"/>
</svg>
