<svg width="41" height="42" viewBox="0 0 41 42" fill="none" xmlns="http://www.w3.org/2000/svg">
<path fill-rule="evenodd" clip-rule="evenodd" d="M33.1115 8.50727C31.4581 6.85307 29.4939 5.54223 27.3318 4.65023C25.1697 3.75822 22.8526 3.30266 20.5138 3.30977C10.6984 3.30977 2.70816 11.2601 2.70417 21.034C2.69983 24.1462 3.5202 27.204 5.08177 29.8961L2.55487 39.0775L11.9958 36.6129C14.6091 38.0286 17.5345 38.7696 20.5066 38.7685H20.5138C30.3284 38.7685 38.3178 30.8174 38.3226 21.0443C38.3286 18.7135 37.8709 16.4047 36.9763 14.2524C36.0817 12.1001 34.7679 10.1472 33.1115 8.50727ZM20.5138 35.777H20.5074C17.8579 35.7778 15.2565 35.0687 12.9738 33.7235L12.4333 33.4042L6.83103 34.8668L8.32641 29.4306L7.97432 28.8717C6.49282 26.5262 5.7079 23.8082 5.71089 21.034C5.71089 12.912 12.3543 6.30373 20.5194 6.30373C24.4363 6.29673 28.1955 7.84584 30.9703 10.6103C33.7452 13.3748 35.3083 17.1283 35.3159 21.0451C35.3127 29.1679 28.6725 35.777 20.5138 35.777ZM28.6326 24.7441C28.1879 24.5221 25.9979 23.4507 25.5923 23.303C25.1867 23.1553 24.8874 23.081 24.5912 23.5249C24.295 23.9688 23.4415 24.962 23.182 25.2614C22.9225 25.5608 22.663 25.5936 22.2183 25.3716C21.7736 25.1497 20.3389 24.6826 18.6392 23.1736C17.3162 21.9992 16.4237 20.5493 16.1642 20.1062C15.9047 19.6631 16.1362 19.4228 16.359 19.2025C16.5594 19.0037 16.8037 18.6851 17.0264 18.4264C17.2492 18.1678 17.3234 17.9825 17.4711 17.6871C17.6188 17.3917 17.5454 17.133 17.4344 16.9119C17.3234 16.6907 16.4332 14.5103 16.0628 13.6233C15.7011 12.7595 15.3347 12.8768 15.0616 12.8633C14.8021 12.8505 14.5027 12.8473 14.2081 12.8473C13.9829 12.8532 13.7613 12.9054 13.5572 13.0007C13.3531 13.0961 13.1708 13.2325 13.0217 13.4014C12.6137 13.8453 11.4641 14.9183 11.4641 17.0963C11.4641 19.2743 13.0608 21.3821 13.2812 21.6775C13.5016 21.9729 16.4189 26.4462 20.8826 28.3648C21.7115 28.7197 22.5584 29.031 23.4199 29.2973C24.4858 29.6342 25.4558 29.5871 26.2223 29.4729C27.0773 29.346 28.8569 28.4015 29.2266 27.3668C29.5962 26.3321 29.597 25.4459 29.4861 25.2614C29.3751 25.077 29.0781 24.9652 28.6326 24.7441Z" fill="white"/>
</svg>
